<?xml version="1.0" encoding="UTF-8"?>
<svg id="Layer_1" xmlns="http://www.w3.org/2000/svg" xmlns:xlink="http://www.w3.org/1999/xlink" viewBox="0 0 700 154.7">
  <defs>
    <style>
      .cls-1 {
        fill: url(#linear-gradient-2);
      }

      .cls-2 {
        fill: url(#linear-gradient);
      }

      .cls-3 {
        fill: #212121;
      }
    </style>
    <linearGradient id="linear-gradient" x1="149.1" y1="62.6" x2="63" y2="148.7" gradientUnits="userSpaceOnUse">
      <stop offset="0" stop-color="#ccc"/>
      <stop offset="1" stop-color="#000"/>
    </linearGradient>
    <linearGradient id="linear-gradient-2" x1="5.9" y1="91.3" x2="91.3" y2="5.9" xlink:href="#linear-gradient"/>
  </defs>
  <g>
    <path class="cls-3" d="M279.8,49.9c-.6-6.2-3.5-11-8.5-14.6-5-3.5-11.2-5.3-18.6-5.3s-10,.9-14,2.7c-4,1.8-7.1,4.2-9.4,7.3-2.2,3.1-3.4,6.7-3.4,10.7s.7,5.8,2.1,8.1c1.4,2.3,3.3,4.2,5.6,5.8,2.3,1.6,4.8,2.9,7.5,3.9,2.7,1.1,5.3,1.9,7.8,2.6l12.1,3.4c3.4.9,7,2.1,10.7,3.6,3.8,1.5,7.3,3.5,10.5,5.9,3.3,2.4,5.9,5.4,8,9.1,2.1,3.6,3.1,8,3.1,13.2s-1.6,12-4.9,17c-3.3,5-8,9-14.2,12-6.2,3-13.6,4.4-22.3,4.4s-15.2-1.3-21.2-4c-6-2.7-10.7-6.4-14.1-11.1s-5.4-10.3-5.8-16.6h12.7c.4,4.5,1.9,8.3,4.5,11.4,2.6,3,6,5.3,10.2,6.9,4.2,1.5,8.7,2.3,13.7,2.3s10.7-.9,15.1-2.8c4.4-1.9,7.9-4.5,10.5-7.8,2.5-3.4,3.8-7.3,3.8-11.8s-1.1-7.2-3.2-9.7c-2.1-2.6-5-4.7-8.6-6.4-3.6-1.7-7.6-3.2-12.1-4.4l-14.2-4.1c-9.1-2.7-16.3-6.4-21.5-11.3-5.2-4.9-7.8-11.1-7.8-18.8s1.7-12.1,5.2-16.9c3.5-4.8,8.2-8.6,14.1-11.3,5.9-2.7,12.5-4.1,19.8-4.1s14,1.3,19.7,4c5.7,2.7,10.3,6.4,13.6,11,3.4,4.6,5.2,9.9,5.4,15.9h-12Z"/>
    <path class="cls-3" d="M348.5,139.4c-7.7,0-14.5-1.9-20.4-5.7-5.9-3.8-10.5-9.1-13.8-15.9s-5-14.7-5-23.7,1.7-17,5-23.8c3.3-6.8,7.9-12.2,13.8-16,5.9-3.8,12.7-5.7,20.4-5.7s14.5,1.9,20.4,5.7c5.9,3.8,10.5,9.1,13.8,16,3.3,6.8,4.9,14.8,4.9,23.8s-1.6,16.9-4.9,23.7c-3.3,6.8-7.9,12.1-13.8,15.9-5.9,3.8-12.7,5.7-20.4,5.7ZM348.5,128.8c6.1,0,11.1-1.6,15.2-4.8,4.1-3.2,7.1-7.4,9.1-12.7,2-5.2,3.1-11,3.1-17.2s-1-11.9-3.1-17.2c-2-5.3-5.1-9.5-9.1-12.7-4.1-3.2-9.1-4.8-15.2-4.8s-11.1,1.6-15.2,4.8c-4.1,3.2-7.1,7.5-9.2,12.7-2.1,5.3-3.1,11-3.1,17.2s1,12,3.1,17.2c2,5.2,5.1,9.5,9.2,12.7,4.1,3.2,9.1,4.8,15.2,4.8Z"/>
    <path class="cls-3" d="M462.3,102.9v-53.1h11.8v87.8h-11.8v-14.7h-.9c-2.1,4.5-5.3,8.2-9.7,11.3-4.4,3-9.9,4.6-16.4,4.6s-10.5-1.2-14.8-3.7c-4.3-2.4-7.7-6.1-10.1-10.9-2.5-4.8-3.7-10.8-3.7-18v-56.3h11.8v55.5c0,6.7,1.9,12,5.7,16,3.8,4,8.7,6,14.7,6s7.3-.9,10.9-2.7,6.6-4.5,8.9-8.1,3.5-8.2,3.5-13.6Z"/>
    <polygon class="cls-3" points="552.6 137.6 567.7 137.6 527.8 87.4 565.1 49.9 550.4 49.9 510.6 90.1 509.2 90.1 509.2 20.6 497.4 20.6 497.4 137.6 509.2 137.6 509.2 104.2 519 95 552.6 137.6"/>
    <path class="cls-3" d="M657.9,137.6h12.9l-42.7-117h-13l-42.8,117h13l12.2-34.2h48.3l12.2,34.2ZM601.4,92.4l19.8-55.6h.9l19.8,55.6h-40.4Z"/>
    <path class="cls-3" d="M700,20.6v117h-12.4V20.6h12.4Z"/>
  </g>
  <g>
    <path class="cls-3" d="M20.8,97.2h112.8c6.9,0,13.1-3.5,16.7-8.8,2.2-3.2,3.5-7.2,3.5-11.4s-1.3-8.1-3.5-11.3c-3.6-5.4-9.8-8.9-16.8-8.9H20.8c-11.2,0-20.2,9.1-20.2,20.2s9.1,20.2,20.2,20.2Z"/>
    <path class="cls-2" d="M149.1,62.6c-8-8-21-8-28.9,0l-57.1,57.1c-5,5-6.8,11.8-5.6,18.3.7,3.9,2.6,7.7,5.6,10.7,3,3,6.7,4.9,10.6,5.6,6.4,1.2,13.4-.6,18.4-5.6l57.1-57.1c8-8,8-21,0-28.9ZM88.1,144.8c-3.5,3.5-8.6,5.1-13.5,4.1-2.9-.6-5.6-2-7.7-4.1-2.1-2.1-3.6-4.9-4.1-7.8-.9-4.9.6-9.9,4.1-13.4,5.9-5.9,15.4-5.9,21.2,0s5.9,15.4,0,21.2Z"/>
    <path class="cls-1" d="M96.9,16.5c-.7-3.9-2.6-7.6-5.6-10.6-3-3-6.6-4.8-10.5-5.6-6.4-1.2-13.3.6-18.2,5.6L5.9,62.6c-7.9,7.9-7.9,20.8,0,28.7,7.9,7.9,20.8,7.9,28.7,0l56.6-56.6c4.9-4.9,6.8-11.7,5.6-18.1ZM87.5,30.8c-5.8,5.8-15.2,5.8-21.1,0s-5.8-15.2,0-21.1c3.5-3.5,8.5-5,13.4-4.1,2.9.6,5.6,2,7.7,4.1s3.5,4.8,4.1,7.8c.9,4.8-.6,9.8-4.1,13.3Z"/>
  </g>
</svg>